<svg xmlns="http://www.w3.org/2000/svg" viewBox="0 0 512 512" width="100%" height="100%">
  <defs>
    <linearGradient id="bg" x1="0%" y1="0%" x2="100%" y2="100%">
      <stop offset="0%" stop-color="#4f46e5"/>
      <stop offset="50%" stop-color="#0284c7"/>
      <stop offset="100%" stop-color="#0d9488"/>
    </linearGradient>
    <linearGradient id="glow" x1="0%" y1="0%" x2="100%" y2="100%">
      <stop offset="0%" stop-color="#ffffff" stop-opacity="0.3"/>
      <stop offset="100%" stop-color="#ffffff" stop-opacity="0"/>
    </linearGradient>
  </defs>
  <rect width="512" height="512" rx="128" fill="url(#bg)"/>
  <rect x="32" y="32" width="448" height="448" rx="96" fill="url(#glow)"/>
  <!-- Book + Chat / AI Symbol -->
  <g transform="translate(106, 126)" fill="none" stroke="#ffffff" stroke-linecap="round" stroke-linejoin="round">
    <!-- Open Book -->
    <path d="M 150 160 C 100 130 50 140 0 150 L 0 30 C 50 20 100 10 150 40 C 200 10 250 20 300 30 L 300 150 C 250 140 200 130 150 160 Z" stroke-width="20" fill="rgba(255,255,255,0.1)"/>
    <path d="M 150 40 L 150 160" stroke-width="18"/>
    <!-- AI Sparkles / Voice Wave above book -->
    <path d="M 150 -40 L 150 -10 M 120 -25 L 180 -25" stroke-width="14"/>
    <circle cx="80" cy="-30" r="8" fill="#ffffff"/>
    <circle cx="220" cy="-30" r="8" fill="#ffffff"/>
  </g>
</svg>
